<svg width="193" height="36" viewBox="0 0 193 36" fill="none" xmlns="http://www.w3.org/2000/svg">
<path d="M0.4 28L13.64 14L0.4 -1.90735e-06H14L21.04 8L28.08 -1.90735e-06H41.68L28.44 14L41.68 28H28.08L21.04 20L14 28H0.4ZM61.1263 8.832C67.2063 8.832 72.3583 11.392 72.3583 18.592C72.3583 25.792 67.2063 28.32 61.1263 28.32C57.0623 28.32 53.7983 27.232 51.7503 25.088V36H46.2463V9.152H51.7503V12.064C53.7983 9.952 57.0623 8.832 61.1263 8.832ZM59.3023 23.744C64.1983 23.744 66.8863 22.304 66.8863 18.592C66.8863 14.848 64.1983 13.408 59.3023 13.408C54.4063 13.408 51.7503 14.848 51.7503 18.592C51.7503 22.304 54.4063 23.744 59.3023 23.744ZM89.1301 8.832C97.0021 8.832 101.482 11.36 101.546 18.496V28H96.0421V25.664C92.7141 27.296 89.0341 28.32 84.5861 28.32C79.3061 28.32 76.0101 26.624 76.0101 22.368C76.0101 17.472 81.3861 15.936 87.3701 15.936C90.6021 15.936 93.5781 16.448 96.0421 17.28C96.0421 13.696 91.4341 13.408 88.8741 13.408C86.4101 13.408 83.4021 13.632 79.5301 14.784L77.5781 10.784C81.4181 9.536 85.1941 8.832 89.1301 8.832ZM96.0421 22.144V20.672C94.1221 20.064 91.5301 19.52 88.0421 19.52C83.9461 19.52 81.4821 20.224 81.4821 22.144C81.4821 24.128 83.3061 24.288 86.1541 24.288C89.1301 24.288 93.2261 23.36 96.0421 22.144ZM122.674 8.832C127.698 8.832 132.402 10.624 132.466 17.568L132.402 28H126.898V19.648C126.898 15.648 125.554 13.568 121.042 13.568C117.362 13.568 113.394 15.456 111.698 17.44V28H106.226V9.152H111.698V12.448C114.386 10.336 118.098 8.832 122.674 8.832ZM136.584 21.376H142.056C142.056 23.392 144.136 24.16 150.248 24.16C156.168 24.16 157.128 23.776 157.128 22.304C157.128 20.864 156.232 20.768 149.608 20.352C141.32 19.872 137.256 19.232 137.256 14.688C137.256 9.76 143.016 8.832 149.736 8.832C156.84 8.832 161.992 9.76 161.992 14.944H156.488C156.488 13.376 154.504 12.992 149.416 12.992C144.232 12.992 142.76 13.376 142.76 14.464C142.76 15.648 143.752 15.84 150.248 16.32C157.608 16.864 162.632 17.056 162.632 22.08C162.632 27.392 157.832 28.32 150.568 28.32C143.304 28.32 136.584 27.392 136.584 21.376ZM179.185 23.872C182.961 23.872 185.265 23.168 186.641 21.248H192.081C190.833 26.048 186.161 28.32 179.185 28.32C172.017 28.32 166.449 25.504 166.449 18.592C166.449 11.648 171.857 8.832 179.505 8.832C186.673 8.832 192.401 11.296 192.401 19.872H172.049C172.657 22.88 175.537 23.872 179.185 23.872ZM179.473 12.992C175.729 12.992 173.105 13.728 172.241 16.384H186.545C185.617 13.728 182.929 12.992 179.473 12.992Z" fill="white"/>
</svg>
